<?xml version="1.0" encoding="UTF-8" standalone="no"?>
<!-- Created with Inkscape (http://www.inkscape.org/) -->

<svg
   width="1024"
   height="1024"
   viewBox="0 0 270.93333 270.93333"
   version="1.1"
   id="svg5"
   xml:space="preserve"
   inkscape:version="1.2.2 (b0a8486541, 2022-12-01)"
   sodipodi:docname="logo.svg"
   inkscape:export-filename="logo.png"
   inkscape:export-xdpi="122.85383"
   inkscape:export-ydpi="122.85383"
   xmlns:inkscape="http://www.inkscape.org/namespaces/inkscape"
   xmlns:sodipodi="http://sodipodi.sourceforge.net/DTD/sodipodi-0.dtd"
   xmlns="http://www.w3.org/2000/svg"
   xmlns:svg="http://www.w3.org/2000/svg"><sodipodi:namedview
   id="namedview7"
   pagecolor="#505050"
   bordercolor="#eeeeee"
   borderopacity="1"
   inkscape:showpageshadow="0"
   inkscape:pageopacity="0"
   inkscape:pagecheckerboard="0"
   inkscape:deskcolor="#505050"
   inkscape:document-units="px"
   showgrid="false"
   inkscape:zoom="0.57940081"
   inkscape:cx="409.90623"
   inkscape:cy="296.85841"
   inkscape:window-width="1920"
   inkscape:window-height="1007"
   inkscape:window-x="0"
   inkscape:window-y="0"
   inkscape:window-maximized="1"
   inkscape:current-layer="layer1" />
    <defs
   id="defs2" />
    <path
   style="display:inline;fill:#fc3254;fill-opacity:1;stroke:none;stroke-width:13.3879"
   d="m 238.10054,92.448127 3.37561,-0.241114 -0.12056,-34.720482 -8.31845,-0.723345 -3.25505,-18.204143 -12.89962,-1.205573 -6.63065,7.353993 v 10.247365 l 14.22575,10.85015 z"
   id="path4310" />
    <g
   inkscape:label="Coeur"
   inkscape:groupmode="layer"
   id="layer1"
   style="display:inline"><path
   d="m 77.387704,30.794576 c -7.68831,0.676391 -15.544163,3.919089 -22.190003,9.171061 -5.119333,4.038461 -8.674947,8.156476 -12.677334,14.701546 -8.097866,13.209519 -11.74656,27.672336 -11.095,44.044961 0.07453,2.068986 0.242,4.496046 0.353707,5.371386 0.744613,5.78912 1.04248,7.73872 1.675413,10.84214 2.271134,11.02119 5.752267,21.18695 11.46732,33.42166 56.273883,92.68796 94.445463,135.16114 161.361453,39.4097 30.93941,-43.9256 42.46257,-82.28094 34.08548,-113.514301 -2.53175,-9.449571 -6.81337,-18.083498 -13.08689,-26.399126 -3.01575,-3.978775 -4.80286,-5.828894 -7.57662,-7.778496 -7.12984,-5.013246 -13.66397,-7.77848 -21.44536,-9.031806 -2.49452,-0.397866 -9.48539,-1.001196 -12.05436,-0.643072 -15.32967,0.36131 -25.65173,4.12327 -48.48412,24.661282 C 114.88964,35.689558 95.912831,29.460727 77.387704,30.794605 Z"
   id="path302"
   style="fill:#fc3254;fill-opacity:1;stroke:none;stroke-width:0.0186157"
   sodipodi:nodetypes="cccccccccccccccc" />
        <path
   d="m 201.09455,93.591878 q -1.79089,0 -3.06621,-1.27532 -1.27537,-1.27537 -1.27537,-3.06626 v -31.40408 q 0,-1.79089 1.27537,-3.06621 1.27532,-1.27537 3.06621,-1.27537 h 5.06516 v -6.94652 q 0,-5.70556 4.02368,-9.72694 4.02362,-4.02138 9.73235,-4.02138 5.70873,0 9.7247,4.02138 4.01596,4.02138 4.01596,9.72694 v 6.94652 h 5.06517 q 1.79089,0 3.0662,1.27537 1.27538,1.27532 1.27538,3.06621 v 31.40408 q 0,1.79089 -1.27538,3.06626 -1.27531,1.27532 -3.0662,1.27532 z m 0,-4.34158 h 37.62702 v -31.40408 h -37.62702 z m 18.82568,-10.13033 q 2.30334,0 3.93146,-1.5942 1.62805,-1.59414 1.62805,-3.83278 0,-2.17082 -1.64025,-3.9436 -1.64026,-1.77279 -3.9436,-1.77279 -2.30335,0 -3.93141,1.77279 -1.62811,1.77278 -1.62811,3.97975 0,2.20697 1.64026,3.79893 1.64025,1.5919 3.9436,1.5919 z m -9.41894,-25.61533 h 18.81354 v -6.94652 q 0,-3.91948 -2.74115,-6.66309 -2.74119,-2.74365 -6.65706,-2.74365 -3.91598,0 -6.66566,2.74365 -2.74967,2.74361 -2.74967,6.66309 z m -9.40674,35.74566 v -31.40408 z"
   id="path290"
   style="stroke-width:0.0723598" /></g></svg>
