<?xml version="1.0" encoding="UTF-8" standalone="no"?>
<!-- Created with Inkscape (http://www.inkscape.org/) -->

<svg
   width="1024"
   height="1024"
   viewBox="0 0 270.93333 270.93333"
   version="1.1"
   id="svg5"
   xml:space="preserve"
   inkscape:version="1.2.2 (b0a8486541, 2022-12-01)"
   sodipodi:docname="logo.svg"
   inkscape:export-filename="ios/Runner/Assets.xcassets/AppIcon.appiconset/Icon-App-1024x1024@1x.png"
   inkscape:export-xdpi="96"
   inkscape:export-ydpi="96"
   xmlns:inkscape="http://www.inkscape.org/namespaces/inkscape"
   xmlns:sodipodi="http://sodipodi.sourceforge.net/DTD/sodipodi-0.dtd"
   xmlns="http://www.w3.org/2000/svg"
   xmlns:svg="http://www.w3.org/2000/svg"><sodipodi:namedview
     id="namedview7"
     pagecolor="#505050"
     bordercolor="#eeeeee"
     borderopacity="1"
     inkscape:showpageshadow="0"
     inkscape:pageopacity="0"
     inkscape:pagecheckerboard="0"
     inkscape:deskcolor="#505050"
     inkscape:document-units="px"
     showgrid="false"
     inkscape:zoom="1.0973349"
     inkscape:cx="689.8532"
     inkscape:cy="244.22808"
     inkscape:window-width="1920"
     inkscape:window-height="1051"
     inkscape:window-x="1920"
     inkscape:window-y="25"
     inkscape:window-maximized="1"
     inkscape:current-layer="svg5" /><defs
     id="defs2" /><path
     style="display:inline;fill:#ff1a1c;fill-opacity:1;stroke:none;stroke-width:13.3879"
     d="m 238.10054,84.510622 3.37561,-0.241114 -0.12056,-34.720482 -8.31845,-0.723345 -3.25505,-18.204143 -12.89962,-1.205573 -6.63065,7.353993 v 10.247365 l 14.22575,10.85015 z"
     id="path4310" /><g
     inkscape:label="Coeur"
     inkscape:groupmode="layer"
     id="layer1"
     style="display:inline"><path
       d="m 74.158701,29.927881 c -7.68831,0.632936 -15.544163,3.667308 -22.190003,8.581867 -5.119333,3.77901 -8.674947,7.632464 -12.677334,13.757046 -8.097866,12.360875 -11.74656,25.894529 -11.095,41.215299 0.07453,1.93604 0.242,4.20717 0.353707,5.02627 0.744613,5.417187 1.04248,7.241537 1.675413,10.145577 2.271134,10.31313 5.752267,19.82579 11.46732,31.27449 13.663961,27.34655 37.845847,57.67163 70.088346,87.86639 9.40096,8.80525 21.87354,19.54653 22.71124,19.54653 0.40955,0 5.28688,-4.09545 12.17471,-10.22004 21.42676,-19.06254 41.45732,-40.50789 56.38716,-60.31506 30.93941,-41.1036 42.46257,-76.994797 34.08548,-106.221539 -2.53175,-8.842484 -6.81337,-16.921725 -13.08689,-24.703116 -3.01575,-3.723159 -4.80286,-5.454417 -7.57662,-7.278767 -7.12984,-4.691171 -13.66397,-7.278753 -21.44536,-8.451559 -2.49452,-0.372305 -9.58713,-0.428156 -12.1561,-0.09304 -2.81098,0.372306 -7.11122,1.303102 -9.71743,2.103576 -11.54177,3.537 -23.73509,11.18807 -33.95516,21.296427 -1.34033,1.321724 -2.95991,2.997143 -3.57423,3.704538 l -1.13556,1.284494 -0.55846,-0.44679 c -0.29787,-0.241996 -1.7499,-1.56372 -3.22054,-2.941279 C 117.8499,43.014786 103.12482,34.414311 90.093791,31.305481 84.173981,29.890679 79.538651,29.499752 74.158701,29.927908 Z"
       id="path302"
       style="fill:#ff1a1c;fill-opacity:1;stroke:none;stroke-width:0.0186157" /><path
       d="m 202.38615,86.945974 q -1.79089,0 -3.06621,-1.27532 -1.27537,-1.27537 -1.27537,-3.06626 v -31.40408 q 0,-1.79089 1.27537,-3.06621 1.27532,-1.27537 3.06621,-1.27537 h 5.06516 v -6.94652 q 0,-5.70556 4.02368,-9.72694 4.02362,-4.02138 9.73235,-4.02138 5.70873,0 9.7247,4.02138 4.01596,4.02138 4.01596,9.72694 v 6.94652 h 5.06517 q 1.79089,0 3.0662,1.27537 1.27538,1.27532 1.27538,3.06621 v 31.40408 q 0,1.79089 -1.27538,3.06626 -1.27531,1.27532 -3.0662,1.27532 z m 0,-4.34158 h 37.62702 v -31.40408 h -37.62702 z m 18.82568,-10.13033 q 2.30334,0 3.93146,-1.5942 1.62805,-1.59414 1.62805,-3.83278 0,-2.17082 -1.64025,-3.9436 -1.64026,-1.77279 -3.9436,-1.77279 -2.30335,0 -3.93141,1.77279 -1.62811,1.77278 -1.62811,3.97975 0,2.20697 1.64026,3.79893 1.64025,1.5919 3.9436,1.5919 z m -9.41894,-25.61533 h 18.81354 v -6.94652 q 0,-3.91948 -2.74115,-6.66309 -2.74119,-2.74365 -6.65706,-2.74365 -3.91598,0 -6.66566,2.74365 -2.74967,2.74361 -2.74967,6.66309 z m -9.40674,35.74566 v -31.40408 z"
       id="path290"
       style="stroke-width:0.0723598" /></g></svg>
