<?xml version="1.0" encoding="UTF-8" standalone="no"?>
<!-- Created with Inkscape (http://www.inkscape.org/) -->

<svg
   width="48"
   height="48"
   viewBox="0 0 12.7 12.7"
   version="1.1"
   id="svg5"
   xml:space="preserve"
   inkscape:version="1.2.2 (b0a8486541, 2022-12-01)"
   sodipodi:docname="logo.svg"
   inkscape:export-filename="logo.png"
   inkscape:export-xdpi="2048"
   inkscape:export-ydpi="2048"
   xmlns:inkscape="http://www.inkscape.org/namespaces/inkscape"
   xmlns:sodipodi="http://sodipodi.sourceforge.net/DTD/sodipodi-0.dtd"
   xmlns="http://www.w3.org/2000/svg"
   xmlns:svg="http://www.w3.org/2000/svg"><sodipodi:namedview
   id="namedview7"
   pagecolor="#505050"
   bordercolor="#eeeeee"
   borderopacity="1"
   inkscape:showpageshadow="0"
   inkscape:pageopacity="0"
   inkscape:pagecheckerboard="0"
   inkscape:deskcolor="#505050"
   inkscape:document-units="px"
   showgrid="false"
   inkscape:zoom="6.5551718"
   inkscape:cx="-55.833777"
   inkscape:cy="15.865336"
   inkscape:window-width="1920"
   inkscape:window-height="1051"
   inkscape:window-x="1920"
   inkscape:window-y="0"
   inkscape:window-maximized="1"
   inkscape:current-layer="layer1" />
    <defs
   id="defs2" />
    
    <g
   inkscape:groupmode="layer"
   id="layer2"
   inkscape:label="Heart"
   style="display:inline"><path
     d="M 6.3499967,8.2285433 C 7.13493,7.51417 7.6398434,7.0136666 7.8647367,6.7270333 c 0.2249,-0.2866333 0.33735,-0.57547 0.33735,-0.86651 0,-0.28222 -0.09922,-0.52255 -0.29766,-0.72099 -0.19844,-0.19844 -0.43877,-0.29766 -0.72099,-0.29766 -0.1675667,0 -0.3241133,0.033067 -0.46964,0.0992 -0.14552,0.066133 -0.2667867,0.1565333 -0.3638,0.2712 -0.097013,-0.1146533 -0.21828,-0.2050533 -0.3638,-0.2712 -0.14552,-0.066133 -0.3020667,-0.0992 -0.46964,-0.0992 -0.28222,0 -0.52255,0.09922 -0.72099,0.29766 -0.1984333,0.19844 -0.29765,0.43877 -0.29765,0.72099 0,0.1411133 0.019833,0.27561 0.0595,0.40349 0.039667,0.12788 0.1256567,0.2756067 0.25797,0.44318 0.1322933,0.1675667 0.3197067,0.3704133 0.56224,0.60854 0.2425333,0.2381267 0.5666467,0.5423967 0.97234,0.91281 z"
     style="stroke-width:0.0132292;fill:#d93235;fill-opacity:1"
     id="path1076"
     sodipodi:nodetypes="ccssscccscsscscc" /></g><g
   inkscape:label="Shield"
   inkscape:groupmode="layer"
   id="layer1"
   style="display:inline">
        <path
   d="m 6.3499966,11.628445 c -1.23472,-0.30868 -2.2489567,-1.02526 -3.04271,-2.1497405 -0.7937467,-1.1244803 -1.19062,-2.3570004 -1.19062,-3.6975604 v -3.14854 l 4.23333,-1.5875 4.2333404,1.5875 v 3.14854 c 0,1.34056 -0.396877,2.5730801 -1.1906304,3.6975604 -0.7937467,1.1244805 -1.8079833,1.8410605 -3.04271,2.1497405 z m 0,-0.82021 c 1.01424,-0.33514 1.8410633,-0.9679368 2.48047,-1.8983905 C 9.4698799,7.9793976 9.7895865,6.9364974 9.7895865,5.7811441 v -2.59291 l -3.4395899,-1.29646 -3.43958,1.29646 v 2.59291 c 0,1.1553533 0.3197033,2.1982535 0.95911,3.1287004 0.6394133,0.9304537 1.4662367,1.5632505 2.48047,1.8983905 z"
   id="path2"
   style="stroke-width:0.0132292;fill:#303030;fill-opacity:1"
   sodipodi:nodetypes="ccscccsccccscccssc"
   inkscape:label="path2" /></g></svg>
